<?xml version="1.0" encoding="UTF-8"?>
<svg id="Layer_1" xmlns="http://www.w3.org/2000/svg" version="1.1" viewBox="0 0 800 800">
  <!-- Generator: Adobe Illustrator 30.2.1, SVG Export Plug-In . SVG Version: 2.1.1 Build 1)  -->
  <defs>
    <style>
      .st0 {
        fill: #dfedff;
      }
    </style>
  </defs>
  <path class="st0" d="M700.5,420.6c-51.7,27.7-110.8-6-110.8-6-88.1-42.1-192.4-43.6-192.4-43.6-26.6-1.8-19.9-13.7-16.2-20.2.6-1,1.4-1.8,2-2.8,17.4-24.7,26.7-54.2,26.7-84.4,0-81.1-65.7-146.8-146.8-146.8-80.4,0-145.7,64.7-146.8,144.9-.8,3-33,7.3-57-4-31.2-14.6-19.6,57.5,33.1,74.6h-1.8c-21.9-1.3-24.1,5.9-24.1,5.9,0,0-12.6,23.2,64.9,30,24.5,2.1,27.9,6.3,32.8,13,9.3,12.6,2.8,30.7-9.5,46.1-34.8,43.6-56.1,141.2,38.9,211.6,80.6,59.7,295,62.5,388.6-11.8,84.4-67,122.4-133.2,145.1-188.4,3-7.5,24.9-45.6-26.8-18h0Z"/>
</svg>